<mxfile host="app.diagrams.net" modified="2022-11-04T21:14:43.459Z" agent="5.0 (Windows)" etag="gvlkFbSotx17RY8yXSJa" version="20.5.1" type="github">
  <diagram id="-QTC5YhXDy4I8rQjBGPy" name="Page-1">
    <mxGraphModel dx="2966" dy="2780" grid="1" gridSize="10" guides="1" tooltips="1" connect="1" arrows="1" fold="1" page="1" pageScale="1" pageWidth="827" pageHeight="1169" math="0" shadow="0">
      <root>
        <mxCell id="0" />
        <mxCell id="1" parent="0" />
        <mxCell id="gGllVryrbf8ipJSGgLWO-30" value="" style="edgeStyle=orthogonalEdgeStyle;rounded=0;orthogonalLoop=1;jettySize=auto;html=1;" parent="1" source="gGllVryrbf8ipJSGgLWO-13" target="gGllVryrbf8ipJSGgLWO-28" edge="1">
          <mxGeometry relative="1" as="geometry" />
        </mxCell>
        <mxCell id="gGllVryrbf8ipJSGgLWO-36" value="" style="edgeStyle=orthogonalEdgeStyle;rounded=0;orthogonalLoop=1;jettySize=auto;html=1;" parent="1" source="gGllVryrbf8ipJSGgLWO-13" target="gGllVryrbf8ipJSGgLWO-33" edge="1">
          <mxGeometry relative="1" as="geometry" />
        </mxCell>
        <mxCell id="gGllVryrbf8ipJSGgLWO-41" value="" style="edgeStyle=orthogonalEdgeStyle;rounded=0;orthogonalLoop=1;jettySize=auto;html=1;" parent="1" source="gGllVryrbf8ipJSGgLWO-13" target="gGllVryrbf8ipJSGgLWO-38" edge="1">
          <mxGeometry relative="1" as="geometry" />
        </mxCell>
        <mxCell id="gGllVryrbf8ipJSGgLWO-43" value="" style="edgeStyle=orthogonalEdgeStyle;rounded=0;orthogonalLoop=1;jettySize=auto;html=1;" parent="1" source="gGllVryrbf8ipJSGgLWO-13" target="gGllVryrbf8ipJSGgLWO-42" edge="1">
          <mxGeometry relative="1" as="geometry" />
        </mxCell>
        <mxCell id="Ex0EIse3YdcYi0-qsqE2-28" value="" style="edgeStyle=orthogonalEdgeStyle;rounded=0;orthogonalLoop=1;jettySize=auto;html=1;" parent="1" source="gGllVryrbf8ipJSGgLWO-13" target="gGllVryrbf8ipJSGgLWO-32" edge="1">
          <mxGeometry relative="1" as="geometry" />
        </mxCell>
        <mxCell id="gGllVryrbf8ipJSGgLWO-13" value="Stadium" style="whiteSpace=wrap;html=1;align=center;" parent="1" vertex="1">
          <mxGeometry x="675" y="20" width="100" height="40" as="geometry" />
        </mxCell>
        <mxCell id="gGllVryrbf8ipJSGgLWO-84" value="" style="edgeStyle=orthogonalEdgeStyle;rounded=0;orthogonalLoop=1;jettySize=auto;html=1;startSize=0;endSize=0;sourcePerimeterSpacing=6;targetPerimeterSpacing=6;" parent="1" source="gGllVryrbf8ipJSGgLWO-14" target="gGllVryrbf8ipJSGgLWO-83" edge="1">
          <mxGeometry relative="1" as="geometry" />
        </mxCell>
        <mxCell id="gGllVryrbf8ipJSGgLWO-86" value="" style="edgeStyle=orthogonalEdgeStyle;rounded=0;orthogonalLoop=1;jettySize=auto;html=1;startSize=0;endSize=0;sourcePerimeterSpacing=6;targetPerimeterSpacing=6;" parent="1" source="gGllVryrbf8ipJSGgLWO-14" target="gGllVryrbf8ipJSGgLWO-85" edge="1">
          <mxGeometry relative="1" as="geometry" />
        </mxCell>
        <mxCell id="gGllVryrbf8ipJSGgLWO-88" value="" style="edgeStyle=orthogonalEdgeStyle;rounded=0;orthogonalLoop=1;jettySize=auto;html=1;startSize=0;endSize=0;sourcePerimeterSpacing=6;targetPerimeterSpacing=6;" parent="1" source="gGllVryrbf8ipJSGgLWO-14" target="gGllVryrbf8ipJSGgLWO-87" edge="1">
          <mxGeometry relative="1" as="geometry" />
        </mxCell>
        <mxCell id="xitRjYBdMeIqJXFht9u3-31" style="edgeStyle=orthogonalEdgeStyle;shape=link;rounded=0;orthogonalLoop=1;jettySize=auto;html=1;exitX=0.5;exitY=1;exitDx=0;exitDy=0;" edge="1" parent="1" source="gGllVryrbf8ipJSGgLWO-14" target="gGllVryrbf8ipJSGgLWO-66">
          <mxGeometry relative="1" as="geometry" />
        </mxCell>
        <mxCell id="gGllVryrbf8ipJSGgLWO-14" value="User" style="whiteSpace=wrap;html=1;align=center;" parent="1" vertex="1">
          <mxGeometry x="310" y="465" width="110" height="40" as="geometry" />
        </mxCell>
        <mxCell id="gGllVryrbf8ipJSGgLWO-47" value="" style="edgeStyle=orthogonalEdgeStyle;rounded=0;orthogonalLoop=1;jettySize=auto;html=1;" parent="1" source="gGllVryrbf8ipJSGgLWO-12" target="gGllVryrbf8ipJSGgLWO-44" edge="1">
          <mxGeometry relative="1" as="geometry">
            <Array as="points">
              <mxPoint x="355" y="90" />
            </Array>
          </mxGeometry>
        </mxCell>
        <mxCell id="gGllVryrbf8ipJSGgLWO-48" value="" style="edgeStyle=orthogonalEdgeStyle;rounded=0;orthogonalLoop=1;jettySize=auto;html=1;" parent="1" source="gGllVryrbf8ipJSGgLWO-12" target="gGllVryrbf8ipJSGgLWO-45" edge="1">
          <mxGeometry relative="1" as="geometry">
            <Array as="points">
              <mxPoint x="373" y="70" />
            </Array>
          </mxGeometry>
        </mxCell>
        <mxCell id="gGllVryrbf8ipJSGgLWO-49" value="" style="edgeStyle=orthogonalEdgeStyle;rounded=0;orthogonalLoop=1;jettySize=auto;html=1;" parent="1" source="gGllVryrbf8ipJSGgLWO-12" target="gGllVryrbf8ipJSGgLWO-46" edge="1">
          <mxGeometry relative="1" as="geometry" />
        </mxCell>
        <mxCell id="gGllVryrbf8ipJSGgLWO-12" value="Club" style="whiteSpace=wrap;html=1;align=center;" parent="1" vertex="1">
          <mxGeometry x="425" y="65" width="100" height="40" as="geometry" />
        </mxCell>
        <mxCell id="gGllVryrbf8ipJSGgLWO-28" value="name" style="ellipse;whiteSpace=wrap;html=1;align=center;" parent="1" vertex="1">
          <mxGeometry x="550" width="60" height="20" as="geometry" />
        </mxCell>
        <mxCell id="gGllVryrbf8ipJSGgLWO-32" value="location" style="ellipse;whiteSpace=wrap;html=1;align=center;" parent="1" vertex="1">
          <mxGeometry x="680" y="92.5" width="50" height="30" as="geometry" />
        </mxCell>
        <mxCell id="gGllVryrbf8ipJSGgLWO-33" value="s_id" style="ellipse;whiteSpace=wrap;html=1;align=center;fontStyle=4;" parent="1" vertex="1">
          <mxGeometry x="590" y="85" width="60" height="20" as="geometry" />
        </mxCell>
        <mxCell id="gGllVryrbf8ipJSGgLWO-38" value="capacity" style="ellipse;whiteSpace=wrap;html=1;align=center;" parent="1" vertex="1">
          <mxGeometry x="790" y="105" width="60" height="35" as="geometry" />
        </mxCell>
        <mxCell id="gGllVryrbf8ipJSGgLWO-42" value="status" style="ellipse;whiteSpace=wrap;html=1;align=center;" parent="1" vertex="1">
          <mxGeometry x="650" y="-40" width="50" height="20" as="geometry" />
        </mxCell>
        <mxCell id="gGllVryrbf8ipJSGgLWO-44" value="location" style="ellipse;whiteSpace=wrap;html=1;align=center;" parent="1" vertex="1">
          <mxGeometry x="325" y="145" width="60" height="20" as="geometry" />
        </mxCell>
        <mxCell id="gGllVryrbf8ipJSGgLWO-45" value="Name" style="ellipse;whiteSpace=wrap;html=1;align=center;" parent="1" vertex="1">
          <mxGeometry x="345" y="30" width="55" height="20" as="geometry" />
        </mxCell>
        <mxCell id="gGllVryrbf8ipJSGgLWO-46" value="c_id" style="ellipse;whiteSpace=wrap;html=1;align=center;fontStyle=4;" parent="1" vertex="1">
          <mxGeometry x="430" y="10" width="40" height="30" as="geometry" />
        </mxCell>
        <mxCell id="xitRjYBdMeIqJXFht9u3-12" style="edgeStyle=orthogonalEdgeStyle;rounded=0;orthogonalLoop=1;jettySize=auto;html=1;exitX=0.25;exitY=1;exitDx=0;exitDy=0;entryX=0.5;entryY=0;entryDx=0;entryDy=0;" edge="1" parent="1" source="gGllVryrbf8ipJSGgLWO-50" target="gGllVryrbf8ipJSGgLWO-53">
          <mxGeometry relative="1" as="geometry" />
        </mxCell>
        <mxCell id="xitRjYBdMeIqJXFht9u3-13" style="edgeStyle=orthogonalEdgeStyle;rounded=0;orthogonalLoop=1;jettySize=auto;html=1;exitX=0.75;exitY=1;exitDx=0;exitDy=0;entryX=0.5;entryY=0;entryDx=0;entryDy=0;" edge="1" parent="1" source="gGllVryrbf8ipJSGgLWO-50" target="gGllVryrbf8ipJSGgLWO-51">
          <mxGeometry relative="1" as="geometry" />
        </mxCell>
        <mxCell id="gGllVryrbf8ipJSGgLWO-50" value="Representative" style="shape=ext;margin=3;double=1;whiteSpace=wrap;html=1;align=center;" parent="1" vertex="1">
          <mxGeometry x="30" y="110" width="100" height="40" as="geometry" />
        </mxCell>
        <mxCell id="gGllVryrbf8ipJSGgLWO-51" value="&lt;span style=&quot;border-bottom: 1px dotted&quot;&gt;r_id&lt;/span&gt;" style="ellipse;whiteSpace=wrap;html=1;align=center;" parent="1" vertex="1">
          <mxGeometry x="110" y="202.5" width="60" height="42.5" as="geometry" />
        </mxCell>
        <mxCell id="gGllVryrbf8ipJSGgLWO-53" value="Name" style="ellipse;whiteSpace=wrap;html=1;align=center;" parent="1" vertex="1">
          <mxGeometry x="10" y="190" width="70" height="40" as="geometry" />
        </mxCell>
        <mxCell id="gGllVryrbf8ipJSGgLWO-59" value="" style="edgeStyle=orthogonalEdgeStyle;rounded=0;orthogonalLoop=1;jettySize=auto;html=1;" parent="1" source="gGllVryrbf8ipJSGgLWO-57" target="gGllVryrbf8ipJSGgLWO-58" edge="1">
          <mxGeometry relative="1" as="geometry" />
        </mxCell>
        <mxCell id="gGllVryrbf8ipJSGgLWO-61" value="" style="edgeStyle=orthogonalEdgeStyle;rounded=0;orthogonalLoop=1;jettySize=auto;html=1;" parent="1" source="gGllVryrbf8ipJSGgLWO-57" target="gGllVryrbf8ipJSGgLWO-60" edge="1">
          <mxGeometry relative="1" as="geometry" />
        </mxCell>
        <mxCell id="gGllVryrbf8ipJSGgLWO-57" value="Manager" style="shape=ext;margin=3;double=1;whiteSpace=wrap;html=1;align=center;" parent="1" vertex="1">
          <mxGeometry x="910" y="210" width="100" height="40" as="geometry" />
        </mxCell>
        <mxCell id="gGllVryrbf8ipJSGgLWO-58" value="manager_id" style="ellipse;whiteSpace=wrap;html=1;align=center;" parent="1" vertex="1">
          <mxGeometry x="1110" y="220" width="90" height="40" as="geometry" />
        </mxCell>
        <mxCell id="gGllVryrbf8ipJSGgLWO-60" value="Name" style="ellipse;whiteSpace=wrap;html=1;align=center;" parent="1" vertex="1">
          <mxGeometry x="960" y="295" width="60" height="20" as="geometry" />
        </mxCell>
        <mxCell id="gGllVryrbf8ipJSGgLWO-77" value="" style="edgeStyle=orthogonalEdgeStyle;rounded=0;orthogonalLoop=1;jettySize=auto;html=1;startSize=0;endSize=0;sourcePerimeterSpacing=6;targetPerimeterSpacing=6;" parent="1" source="gGllVryrbf8ipJSGgLWO-66" target="gGllVryrbf8ipJSGgLWO-76" edge="1">
          <mxGeometry relative="1" as="geometry" />
        </mxCell>
        <mxCell id="gGllVryrbf8ipJSGgLWO-79" value="" style="edgeStyle=orthogonalEdgeStyle;rounded=0;orthogonalLoop=1;jettySize=auto;html=1;startSize=0;endSize=0;sourcePerimeterSpacing=6;targetPerimeterSpacing=6;" parent="1" source="gGllVryrbf8ipJSGgLWO-66" target="gGllVryrbf8ipJSGgLWO-76" edge="1">
          <mxGeometry relative="1" as="geometry" />
        </mxCell>
        <mxCell id="gGllVryrbf8ipJSGgLWO-80" value="" style="edgeStyle=orthogonalEdgeStyle;rounded=0;orthogonalLoop=1;jettySize=auto;html=1;startSize=0;endSize=0;sourcePerimeterSpacing=6;targetPerimeterSpacing=6;" parent="1" source="gGllVryrbf8ipJSGgLWO-66" target="gGllVryrbf8ipJSGgLWO-78" edge="1">
          <mxGeometry relative="1" as="geometry" />
        </mxCell>
        <mxCell id="gGllVryrbf8ipJSGgLWO-82" value="" style="edgeStyle=orthogonalEdgeStyle;rounded=0;orthogonalLoop=1;jettySize=auto;html=1;startSize=0;endSize=0;sourcePerimeterSpacing=6;targetPerimeterSpacing=6;" parent="1" source="gGllVryrbf8ipJSGgLWO-66" target="gGllVryrbf8ipJSGgLWO-81" edge="1">
          <mxGeometry relative="1" as="geometry" />
        </mxCell>
        <mxCell id="gGllVryrbf8ipJSGgLWO-66" value="D" style="ellipse;whiteSpace=wrap;html=1;aspect=fixed;" parent="1" vertex="1">
          <mxGeometry x="337.5" y="557" width="55" height="55" as="geometry" />
        </mxCell>
        <mxCell id="gGllVryrbf8ipJSGgLWO-76" value="System_Admin" style="whiteSpace=wrap;html=1;align=center;" parent="1" vertex="1">
          <mxGeometry x="95" y="590" width="100" height="40" as="geometry" />
        </mxCell>
        <mxCell id="gGllVryrbf8ipJSGgLWO-90" value="" style="edgeStyle=orthogonalEdgeStyle;rounded=0;orthogonalLoop=1;jettySize=auto;html=1;startSize=0;endSize=0;sourcePerimeterSpacing=6;targetPerimeterSpacing=6;" parent="1" source="gGllVryrbf8ipJSGgLWO-78" target="gGllVryrbf8ipJSGgLWO-89" edge="1">
          <mxGeometry relative="1" as="geometry" />
        </mxCell>
        <mxCell id="gGllVryrbf8ipJSGgLWO-78" value="Associative Manager" style="rounded=1;arcSize=10;whiteSpace=wrap;html=1;align=center;" parent="1" vertex="1">
          <mxGeometry x="480" y="545" width="100" height="40" as="geometry" />
        </mxCell>
        <mxCell id="gGllVryrbf8ipJSGgLWO-97" value="" style="edgeStyle=orthogonalEdgeStyle;rounded=0;orthogonalLoop=1;jettySize=auto;html=1;startSize=0;endSize=0;sourcePerimeterSpacing=6;targetPerimeterSpacing=6;" parent="1" source="gGllVryrbf8ipJSGgLWO-81" target="gGllVryrbf8ipJSGgLWO-94" edge="1">
          <mxGeometry relative="1" as="geometry" />
        </mxCell>
        <mxCell id="gGllVryrbf8ipJSGgLWO-98" value="" style="edgeStyle=orthogonalEdgeStyle;rounded=0;orthogonalLoop=1;jettySize=auto;html=1;startSize=0;endSize=0;sourcePerimeterSpacing=6;targetPerimeterSpacing=6;" parent="1" source="gGllVryrbf8ipJSGgLWO-81" target="gGllVryrbf8ipJSGgLWO-94" edge="1">
          <mxGeometry relative="1" as="geometry" />
        </mxCell>
        <mxCell id="gGllVryrbf8ipJSGgLWO-99" value="" style="edgeStyle=orthogonalEdgeStyle;rounded=0;orthogonalLoop=1;jettySize=auto;html=1;startSize=0;endSize=0;sourcePerimeterSpacing=6;targetPerimeterSpacing=6;" parent="1" source="gGllVryrbf8ipJSGgLWO-81" target="gGllVryrbf8ipJSGgLWO-94" edge="1">
          <mxGeometry relative="1" as="geometry" />
        </mxCell>
        <mxCell id="gGllVryrbf8ipJSGgLWO-100" value="" style="edgeStyle=orthogonalEdgeStyle;rounded=0;orthogonalLoop=1;jettySize=auto;html=1;startSize=0;endSize=0;sourcePerimeterSpacing=6;targetPerimeterSpacing=6;" parent="1" source="gGllVryrbf8ipJSGgLWO-81" target="gGllVryrbf8ipJSGgLWO-94" edge="1">
          <mxGeometry relative="1" as="geometry" />
        </mxCell>
        <mxCell id="xitRjYBdMeIqJXFht9u3-14" style="edgeStyle=orthogonalEdgeStyle;rounded=0;orthogonalLoop=1;jettySize=auto;html=1;exitX=1;exitY=0.5;exitDx=0;exitDy=0;" edge="1" parent="1" source="gGllVryrbf8ipJSGgLWO-81" target="gGllVryrbf8ipJSGgLWO-93">
          <mxGeometry relative="1" as="geometry" />
        </mxCell>
        <mxCell id="xitRjYBdMeIqJXFht9u3-15" style="edgeStyle=orthogonalEdgeStyle;rounded=0;orthogonalLoop=1;jettySize=auto;html=1;exitX=0;exitY=0.75;exitDx=0;exitDy=0;entryX=1;entryY=0.5;entryDx=0;entryDy=0;" edge="1" parent="1" source="gGllVryrbf8ipJSGgLWO-81" target="gGllVryrbf8ipJSGgLWO-92">
          <mxGeometry relative="1" as="geometry" />
        </mxCell>
        <mxCell id="xitRjYBdMeIqJXFht9u3-16" style="edgeStyle=orthogonalEdgeStyle;rounded=0;orthogonalLoop=1;jettySize=auto;html=1;exitX=0;exitY=0.25;exitDx=0;exitDy=0;entryX=0.5;entryY=1;entryDx=0;entryDy=0;" edge="1" parent="1" source="gGllVryrbf8ipJSGgLWO-81" target="gGllVryrbf8ipJSGgLWO-91">
          <mxGeometry relative="1" as="geometry" />
        </mxCell>
        <mxCell id="gGllVryrbf8ipJSGgLWO-81" value="Fan" style="whiteSpace=wrap;html=1;align=center;" parent="1" vertex="1">
          <mxGeometry x="300" y="660" width="100" height="40" as="geometry" />
        </mxCell>
        <mxCell id="gGllVryrbf8ipJSGgLWO-83" value="&lt;div&gt;u_id&lt;/div&gt;" style="ellipse;whiteSpace=wrap;html=1;align=center;fontStyle=4;" parent="1" vertex="1">
          <mxGeometry x="450" y="475" width="50" height="30" as="geometry" />
        </mxCell>
        <mxCell id="gGllVryrbf8ipJSGgLWO-85" value="user_name" style="ellipse;whiteSpace=wrap;html=1;align=center;" parent="1" vertex="1">
          <mxGeometry x="332.5" y="400" width="60" height="30" as="geometry" />
        </mxCell>
        <mxCell id="gGllVryrbf8ipJSGgLWO-87" value="password" style="ellipse;whiteSpace=wrap;html=1;align=center;" parent="1" vertex="1">
          <mxGeometry x="216.25" y="475" width="57.5" height="30" as="geometry" />
        </mxCell>
        <mxCell id="gGllVryrbf8ipJSGgLWO-89" value="Name" style="ellipse;whiteSpace=wrap;html=1;align=center;" parent="1" vertex="1">
          <mxGeometry x="590" y="510" width="40" height="20" as="geometry" />
        </mxCell>
        <mxCell id="gGllVryrbf8ipJSGgLWO-91" value="DOB" style="ellipse;whiteSpace=wrap;html=1;align=center;" parent="1" vertex="1">
          <mxGeometry x="225" y="630" width="65" height="30" as="geometry" />
        </mxCell>
        <mxCell id="gGllVryrbf8ipJSGgLWO-92" value="status" style="ellipse;whiteSpace=wrap;html=1;align=center;" parent="1" vertex="1">
          <mxGeometry x="200.5" y="690" width="60" height="30" as="geometry" />
        </mxCell>
        <mxCell id="gGllVryrbf8ipJSGgLWO-93" value="name" style="ellipse;whiteSpace=wrap;html=1;align=center;" parent="1" vertex="1">
          <mxGeometry x="460" y="640" width="70" height="30" as="geometry" />
        </mxCell>
        <mxCell id="gGllVryrbf8ipJSGgLWO-94" value="national_id" style="ellipse;whiteSpace=wrap;html=1;align=center;" parent="1" vertex="1">
          <mxGeometry x="385" y="770" width="75" height="30" as="geometry" />
        </mxCell>
        <mxCell id="gGllVryrbf8ipJSGgLWO-108" value="" style="edgeStyle=orthogonalEdgeStyle;rounded=0;orthogonalLoop=1;jettySize=auto;html=1;startSize=0;endSize=0;sourcePerimeterSpacing=6;targetPerimeterSpacing=6;" parent="1" source="gGllVryrbf8ipJSGgLWO-104" target="gGllVryrbf8ipJSGgLWO-107" edge="1">
          <mxGeometry relative="1" as="geometry">
            <Array as="points">
              <mxPoint x="510" y="280" />
            </Array>
          </mxGeometry>
        </mxCell>
        <mxCell id="xitRjYBdMeIqJXFht9u3-20" style="edgeStyle=orthogonalEdgeStyle;rounded=0;orthogonalLoop=1;jettySize=auto;html=1;exitX=0;exitY=1;exitDx=0;exitDy=0;" edge="1" parent="1" source="gGllVryrbf8ipJSGgLWO-104">
          <mxGeometry relative="1" as="geometry">
            <mxPoint x="460" y="285" as="targetPoint" />
          </mxGeometry>
        </mxCell>
        <mxCell id="xitRjYBdMeIqJXFht9u3-21" style="edgeStyle=orthogonalEdgeStyle;rounded=0;orthogonalLoop=1;jettySize=auto;html=1;exitX=0;exitY=0.75;exitDx=0;exitDy=0;" edge="1" parent="1" source="gGllVryrbf8ipJSGgLWO-104" target="gGllVryrbf8ipJSGgLWO-109">
          <mxGeometry relative="1" as="geometry" />
        </mxCell>
        <mxCell id="xitRjYBdMeIqJXFht9u3-22" style="edgeStyle=orthogonalEdgeStyle;rounded=0;orthogonalLoop=1;jettySize=auto;html=1;exitX=0;exitY=0.25;exitDx=0;exitDy=0;entryX=0.5;entryY=1;entryDx=0;entryDy=0;" edge="1" parent="1" source="gGllVryrbf8ipJSGgLWO-104" target="gGllVryrbf8ipJSGgLWO-105">
          <mxGeometry relative="1" as="geometry" />
        </mxCell>
        <mxCell id="xitRjYBdMeIqJXFht9u3-23" style="edgeStyle=orthogonalEdgeStyle;rounded=0;orthogonalLoop=1;jettySize=auto;html=1;exitX=0.5;exitY=1;exitDx=0;exitDy=0;entryX=0.5;entryY=0;entryDx=0;entryDy=0;" edge="1" parent="1" source="gGllVryrbf8ipJSGgLWO-104" target="gGllVryrbf8ipJSGgLWO-111">
          <mxGeometry relative="1" as="geometry" />
        </mxCell>
        <mxCell id="gGllVryrbf8ipJSGgLWO-104" value="Match" style="whiteSpace=wrap;html=1;align=center;" parent="1" vertex="1">
          <mxGeometry x="460" y="265" width="100" height="40" as="geometry" />
        </mxCell>
        <mxCell id="gGllVryrbf8ipJSGgLWO-105" value="match_id" style="ellipse;whiteSpace=wrap;html=1;align=center;fontStyle=4;" parent="1" vertex="1">
          <mxGeometry x="381" y="220" width="65" height="20" as="geometry" />
        </mxCell>
        <mxCell id="gGllVryrbf8ipJSGgLWO-107" value="&lt;div&gt;starting_time&lt;/div&gt;" style="ellipse;whiteSpace=wrap;html=1;align=center;" parent="1" vertex="1">
          <mxGeometry x="690" y="265" width="80" height="35" as="geometry" />
        </mxCell>
        <mxCell id="gGllVryrbf8ipJSGgLWO-109" value="ending_time" style="ellipse;whiteSpace=wrap;html=1;align=center;" parent="1" vertex="1">
          <mxGeometry x="220" y="305" width="70" height="45" as="geometry" />
        </mxCell>
        <mxCell id="gGllVryrbf8ipJSGgLWO-111" value="allowed_attendees" style="ellipse;whiteSpace=wrap;html=1;align=center;" parent="1" vertex="1">
          <mxGeometry x="392.5" y="347.5" width="107.5" height="40" as="geometry" />
        </mxCell>
        <mxCell id="xitRjYBdMeIqJXFht9u3-17" style="edgeStyle=orthogonalEdgeStyle;rounded=0;orthogonalLoop=1;jettySize=auto;html=1;exitX=0.5;exitY=1;exitDx=0;exitDy=0;entryX=0.5;entryY=0;entryDx=0;entryDy=0;" edge="1" parent="1" source="gGllVryrbf8ipJSGgLWO-113" target="gGllVryrbf8ipJSGgLWO-114">
          <mxGeometry relative="1" as="geometry" />
        </mxCell>
        <mxCell id="xitRjYBdMeIqJXFht9u3-18" style="edgeStyle=orthogonalEdgeStyle;rounded=0;orthogonalLoop=1;jettySize=auto;html=1;exitX=0.5;exitY=0;exitDx=0;exitDy=0;entryX=0.5;entryY=1;entryDx=0;entryDy=0;" edge="1" parent="1" source="gGllVryrbf8ipJSGgLWO-113" target="gGllVryrbf8ipJSGgLWO-116">
          <mxGeometry relative="1" as="geometry" />
        </mxCell>
        <mxCell id="gGllVryrbf8ipJSGgLWO-113" value="Ticket" style="shape=ext;margin=3;double=1;whiteSpace=wrap;html=1;align=center;" parent="1" vertex="1">
          <mxGeometry x="980" y="390" width="100" height="40" as="geometry" />
        </mxCell>
        <mxCell id="gGllVryrbf8ipJSGgLWO-114" value="&lt;div&gt;&lt;span style=&quot;border-bottom: 1px dotted&quot;&gt;t_id&lt;/span&gt;&lt;/div&gt;&lt;div&gt;&lt;span style=&quot;border-bottom: 1px dotted&quot;&gt;&lt;/span&gt;&lt;/div&gt;" style="ellipse;whiteSpace=wrap;html=1;align=center;" parent="1" vertex="1">
          <mxGeometry x="990" y="480" width="50" height="30" as="geometry" />
        </mxCell>
        <mxCell id="gGllVryrbf8ipJSGgLWO-116" value="status" style="ellipse;whiteSpace=wrap;html=1;align=center;" parent="1" vertex="1">
          <mxGeometry x="1000" y="330" width="60" height="17.5" as="geometry" />
        </mxCell>
        <mxCell id="Ex0EIse3YdcYi0-qsqE2-4" value="" style="edgeStyle=entityRelationEdgeStyle;fontSize=12;html=1;endArrow=ERzeroToMany;startArrow=none;rounded=0;entryX=1;entryY=0.75;entryDx=0;entryDy=0;" parent="1" source="gGllVryrbf8ipJSGgLWO-118" target="gGllVryrbf8ipJSGgLWO-104" edge="1">
          <mxGeometry width="100" height="100" relative="1" as="geometry">
            <mxPoint x="610" y="540" as="sourcePoint" />
            <mxPoint x="630" y="300" as="targetPoint" />
          </mxGeometry>
        </mxCell>
        <mxCell id="gGllVryrbf8ipJSGgLWO-118" value="&lt;div&gt;manages&lt;/div&gt;" style="shape=rhombus;perimeter=rhombusPerimeter;whiteSpace=wrap;html=1;align=center;" parent="1" vertex="1">
          <mxGeometry x="490" y="370" width="120" height="60" as="geometry" />
        </mxCell>
        <mxCell id="Ex0EIse3YdcYi0-qsqE2-5" value="" style="edgeStyle=entityRelationEdgeStyle;fontSize=12;html=1;endArrow=none;startArrow=ERmandOne;rounded=0;entryX=0.5;entryY=1;entryDx=0;entryDy=0;exitX=0.5;exitY=0;exitDx=0;exitDy=0;" parent="1" source="gGllVryrbf8ipJSGgLWO-78" target="gGllVryrbf8ipJSGgLWO-118" edge="1">
          <mxGeometry width="100" height="100" relative="1" as="geometry">
            <mxPoint x="590" y="550" as="sourcePoint" />
            <mxPoint x="464" y="301.25" as="targetPoint" />
          </mxGeometry>
        </mxCell>
        <mxCell id="Ex0EIse3YdcYi0-qsqE2-7" value="plays" style="shape=rhombus;perimeter=rhombusPerimeter;whiteSpace=wrap;html=1;align=center;" parent="1" vertex="1">
          <mxGeometry x="480" y="170" width="80" height="50" as="geometry" />
        </mxCell>
        <mxCell id="Ex0EIse3YdcYi0-qsqE2-20" value="" style="edgeStyle=entityRelationEdgeStyle;fontSize=12;html=1;endArrow=ERzeroToMany;endFill=1;rounded=0;entryX=0.628;entryY=-0.019;entryDx=0;entryDy=0;entryPerimeter=0;exitX=0.5;exitY=1;exitDx=0;exitDy=0;" parent="1" source="Ex0EIse3YdcYi0-qsqE2-7" target="gGllVryrbf8ipJSGgLWO-104" edge="1">
          <mxGeometry width="100" height="100" relative="1" as="geometry">
            <mxPoint x="364" y="210" as="sourcePoint" />
            <mxPoint x="464" y="110" as="targetPoint" />
          </mxGeometry>
        </mxCell>
        <mxCell id="Ex0EIse3YdcYi0-qsqE2-30" value="hosts" style="shape=rhombus;perimeter=rhombusPerimeter;whiteSpace=wrap;html=1;align=center;" parent="1" vertex="1">
          <mxGeometry x="620" y="200" width="85" height="45" as="geometry" />
        </mxCell>
        <mxCell id="Ex0EIse3YdcYi0-qsqE2-31" value="" style="edgeStyle=entityRelationEdgeStyle;fontSize=12;html=1;endArrow=ERzeroToMany;endFill=1;rounded=0;exitX=0;exitY=0.5;exitDx=0;exitDy=0;entryX=1;entryY=0;entryDx=0;entryDy=0;" parent="1" source="Ex0EIse3YdcYi0-qsqE2-30" target="gGllVryrbf8ipJSGgLWO-104" edge="1">
          <mxGeometry width="100" height="100" relative="1" as="geometry">
            <mxPoint x="560" y="265" as="sourcePoint" />
            <mxPoint x="660" y="165" as="targetPoint" />
          </mxGeometry>
        </mxCell>
        <mxCell id="Ex0EIse3YdcYi0-qsqE2-33" value="" style="edgeStyle=entityRelationEdgeStyle;fontSize=12;html=1;endArrow=ERmandOne;rounded=0;exitX=1;exitY=0.5;exitDx=0;exitDy=0;entryX=1;entryY=0.75;entryDx=0;entryDy=0;" parent="1" source="Ex0EIse3YdcYi0-qsqE2-30" target="gGllVryrbf8ipJSGgLWO-13" edge="1">
          <mxGeometry width="100" height="100" relative="1" as="geometry">
            <mxPoint x="750" y="260" as="sourcePoint" />
            <mxPoint x="790" y="60" as="targetPoint" />
          </mxGeometry>
        </mxCell>
        <mxCell id="Ex0EIse3YdcYi0-qsqE2-36" value="" style="edgeStyle=entityRelationEdgeStyle;fontSize=12;html=1;endArrow=ERmandOne;startArrow=none;rounded=0;entryX=0;entryY=0.5;entryDx=0;entryDy=0;exitX=0.597;exitY=-0.056;exitDx=0;exitDy=0;exitPerimeter=0;" parent="1" source="Ex0EIse3YdcYi0-qsqE2-35" target="gGllVryrbf8ipJSGgLWO-12" edge="1">
          <mxGeometry width="100" height="100" relative="1" as="geometry">
            <mxPoint x="200" y="140" as="sourcePoint" />
            <mxPoint x="300" y="40" as="targetPoint" />
          </mxGeometry>
        </mxCell>
        <mxCell id="Ex0EIse3YdcYi0-qsqE2-37" style="edgeStyle=orthogonalEdgeStyle;rounded=0;orthogonalLoop=1;jettySize=auto;html=1;exitX=0.5;exitY=1;exitDx=0;exitDy=0;" parent="1" source="Ex0EIse3YdcYi0-qsqE2-35" target="Ex0EIse3YdcYi0-qsqE2-35" edge="1">
          <mxGeometry relative="1" as="geometry" />
        </mxCell>
        <mxCell id="Ex0EIse3YdcYi0-qsqE2-35" value="&lt;div&gt;represents&lt;/div&gt;" style="shape=rhombus;double=1;perimeter=rhombusPerimeter;whiteSpace=wrap;html=1;align=center;" parent="1" vertex="1">
          <mxGeometry x="195" y="85" width="100" height="45" as="geometry" />
        </mxCell>
        <mxCell id="Ex0EIse3YdcYi0-qsqE2-38" value="" style="edgeStyle=entityRelationEdgeStyle;fontSize=12;html=1;endArrow=none;startArrow=ERmandOne;rounded=0;entryX=0;entryY=0.5;entryDx=0;entryDy=0;exitX=0.597;exitY=-0.056;exitDx=0;exitDy=0;exitPerimeter=0;" parent="1" source="gGllVryrbf8ipJSGgLWO-50" target="Ex0EIse3YdcYi0-qsqE2-35" edge="1">
          <mxGeometry width="100" height="100" relative="1" as="geometry">
            <mxPoint x="129.70000000000005" y="137.76" as="sourcePoint" />
            <mxPoint x="425" y="85" as="targetPoint" />
          </mxGeometry>
        </mxCell>
        <mxCell id="Ex0EIse3YdcYi0-qsqE2-46" value="" style="edgeStyle=entityRelationEdgeStyle;fontSize=12;html=1;endArrow=ERmandOne;startArrow=none;rounded=0;entryX=1;entryY=0;entryDx=0;entryDy=0;exitX=0;exitY=0;exitDx=0;exitDy=0;" parent="1" source="Ex0EIse3YdcYi0-qsqE2-39" target="gGllVryrbf8ipJSGgLWO-13" edge="1">
          <mxGeometry width="100" height="100" relative="1" as="geometry">
            <mxPoint x="1020" y="130" as="sourcePoint" />
            <mxPoint x="1120" y="30" as="targetPoint" />
          </mxGeometry>
        </mxCell>
        <mxCell id="Ex0EIse3YdcYi0-qsqE2-39" value="has" style="shape=rhombus;double=1;perimeter=rhombusPerimeter;whiteSpace=wrap;html=1;align=center;" parent="1" vertex="1">
          <mxGeometry x="840" width="90" height="50" as="geometry" />
        </mxCell>
        <mxCell id="Ex0EIse3YdcYi0-qsqE2-47" value="" style="edgeStyle=entityRelationEdgeStyle;fontSize=12;html=1;endArrow=none;startArrow=ERmandOne;rounded=0;entryX=1;entryY=0;entryDx=0;entryDy=0;exitX=0;exitY=0;exitDx=0;exitDy=0;" parent="1" source="gGllVryrbf8ipJSGgLWO-57" target="Ex0EIse3YdcYi0-qsqE2-39" edge="1">
          <mxGeometry width="100" height="100" relative="1" as="geometry">
            <mxPoint x="960" y="210" as="sourcePoint" />
            <mxPoint x="775" y="20" as="targetPoint" />
          </mxGeometry>
        </mxCell>
        <mxCell id="Ex0EIse3YdcYi0-qsqE2-54" value="" style="edgeStyle=entityRelationEdgeStyle;fontSize=12;html=1;endArrow=ERmandOne;rounded=0;exitX=0.5;exitY=0;exitDx=0;exitDy=0;entryX=0.367;entryY=1.15;entryDx=0;entryDy=0;entryPerimeter=0;" parent="1" source="Ex0EIse3YdcYi0-qsqE2-7" target="gGllVryrbf8ipJSGgLWO-12" edge="1">
          <mxGeometry width="100" height="100" relative="1" as="geometry">
            <mxPoint x="360" y="210" as="sourcePoint" />
            <mxPoint x="460" y="110" as="targetPoint" />
          </mxGeometry>
        </mxCell>
        <mxCell id="Ex0EIse3YdcYi0-qsqE2-56" style="edgeStyle=orthogonalEdgeStyle;rounded=0;orthogonalLoop=1;jettySize=auto;html=1;exitX=0.5;exitY=1;exitDx=0;exitDy=0;" parent="1" source="Ex0EIse3YdcYi0-qsqE2-7" target="Ex0EIse3YdcYi0-qsqE2-7" edge="1">
          <mxGeometry relative="1" as="geometry" />
        </mxCell>
        <mxCell id="Ex0EIse3YdcYi0-qsqE2-60" value="" style="edgeStyle=entityRelationEdgeStyle;fontSize=12;html=1;endArrow=ERmandOne;rounded=0;entryX=0.75;entryY=1;entryDx=0;entryDy=0;" parent="1" source="Ex0EIse3YdcYi0-qsqE2-7" target="gGllVryrbf8ipJSGgLWO-12" edge="1">
          <mxGeometry width="100" height="100" relative="1" as="geometry">
            <mxPoint x="560" y="210" as="sourcePoint" />
            <mxPoint x="560" y="140" as="targetPoint" />
          </mxGeometry>
        </mxCell>
        <mxCell id="Ex0EIse3YdcYi0-qsqE2-67" value="" style="edgeStyle=entityRelationEdgeStyle;fontSize=12;html=1;endArrow=ERoneToMany;startArrow=none;rounded=0;entryX=0;entryY=0.5;entryDx=0;entryDy=0;exitX=0.5;exitY=1;exitDx=0;exitDy=0;" parent="1" source="Ex0EIse3YdcYi0-qsqE2-65" target="gGllVryrbf8ipJSGgLWO-113" edge="1">
          <mxGeometry width="100" height="100" relative="1" as="geometry">
            <mxPoint x="700" y="580" as="sourcePoint" />
            <mxPoint x="800" y="480" as="targetPoint" />
          </mxGeometry>
        </mxCell>
        <mxCell id="Ex0EIse3YdcYi0-qsqE2-65" value="has" style="shape=rhombus;double=1;perimeter=rhombusPerimeter;whiteSpace=wrap;html=1;align=center;" parent="1" vertex="1">
          <mxGeometry x="680" y="340" width="120" height="60" as="geometry" />
        </mxCell>
        <mxCell id="Ex0EIse3YdcYi0-qsqE2-68" value="" style="edgeStyle=entityRelationEdgeStyle;fontSize=12;html=1;endArrow=none;startArrow=ERmandOne;rounded=0;entryX=0;entryY=0.5;entryDx=0;entryDy=0;exitX=0.135;exitY=1.11;exitDx=0;exitDy=0;exitPerimeter=0;" parent="1" source="gGllVryrbf8ipJSGgLWO-104" target="Ex0EIse3YdcYi0-qsqE2-65" edge="1">
          <mxGeometry width="100" height="100" relative="1" as="geometry">
            <mxPoint x="473.5" y="309.4" as="sourcePoint" />
            <mxPoint x="980" y="410" as="targetPoint" />
          </mxGeometry>
        </mxCell>
        <mxCell id="Ex0EIse3YdcYi0-qsqE2-70" value="" style="edgeStyle=entityRelationEdgeStyle;fontSize=12;html=1;endArrow=ERzeroToMany;startArrow=none;rounded=0;entryX=0;entryY=1;entryDx=0;entryDy=0;" parent="1" source="Ex0EIse3YdcYi0-qsqE2-69" target="gGllVryrbf8ipJSGgLWO-113" edge="1">
          <mxGeometry width="100" height="100" relative="1" as="geometry">
            <mxPoint x="400" y="700" as="sourcePoint" />
            <mxPoint x="850" y="530" as="targetPoint" />
          </mxGeometry>
        </mxCell>
        <mxCell id="Ex0EIse3YdcYi0-qsqE2-69" value="owns" style="shape=rhombus;perimeter=rhombusPerimeter;whiteSpace=wrap;html=1;align=center;" parent="1" vertex="1">
          <mxGeometry x="680" y="560" width="120" height="60" as="geometry" />
        </mxCell>
        <mxCell id="Ex0EIse3YdcYi0-qsqE2-71" value="" style="edgeStyle=entityRelationEdgeStyle;fontSize=12;html=1;endArrow=none;startArrow=ERmandOne;rounded=0;entryX=0.5;entryY=1;entryDx=0;entryDy=0;" parent="1" target="Ex0EIse3YdcYi0-qsqE2-69" edge="1">
          <mxGeometry width="100" height="100" relative="1" as="geometry">
            <mxPoint x="400" y="700" as="sourcePoint" />
            <mxPoint x="980" y="430" as="targetPoint" />
          </mxGeometry>
        </mxCell>
        <mxCell id="Ex0EIse3YdcYi0-qsqE2-74" value="Permission_Status" style="ellipse;whiteSpace=wrap;html=1;align=center;" parent="1" vertex="1">
          <mxGeometry x="950" y="-390" width="110" height="40" as="geometry" />
        </mxCell>
        <mxCell id="Ex0EIse3YdcYi0-qsqE2-76" value="" style="edgeStyle=entityRelationEdgeStyle;fontSize=12;html=1;endArrow=ERzeroToMany;endFill=1;startArrow=none;rounded=0;entryX=0.25;entryY=0;entryDx=0;entryDy=0;exitX=0.557;exitY=0.966;exitDx=0;exitDy=0;exitPerimeter=0;" parent="1" source="Ex0EIse3YdcYi0-qsqE2-73" target="gGllVryrbf8ipJSGgLWO-57" edge="1">
          <mxGeometry width="100" height="100" relative="1" as="geometry">
            <mxPoint x="160" y="-60" as="sourcePoint" />
            <mxPoint x="1180" y="-60" as="targetPoint" />
          </mxGeometry>
        </mxCell>
        <mxCell id="Ex0EIse3YdcYi0-qsqE2-78" value="" style="edgeStyle=orthogonalEdgeStyle;rounded=0;orthogonalLoop=1;jettySize=auto;html=1;" parent="1" source="Ex0EIse3YdcYi0-qsqE2-73" target="Ex0EIse3YdcYi0-qsqE2-74" edge="1">
          <mxGeometry relative="1" as="geometry" />
        </mxCell>
        <mxCell id="xitRjYBdMeIqJXFht9u3-1" style="edgeStyle=orthogonalEdgeStyle;rounded=0;orthogonalLoop=1;jettySize=auto;html=1;exitX=1;exitY=0.5;exitDx=0;exitDy=0;entryX=0.5;entryY=1;entryDx=0;entryDy=0;" edge="1" parent="1" source="Ex0EIse3YdcYi0-qsqE2-73" target="MIWhuhaw3we_5TaFjL_g-9">
          <mxGeometry relative="1" as="geometry" />
        </mxCell>
        <mxCell id="xitRjYBdMeIqJXFht9u3-2" style="edgeStyle=orthogonalEdgeStyle;rounded=0;orthogonalLoop=1;jettySize=auto;html=1;exitX=0;exitY=0.5;exitDx=0;exitDy=0;entryX=0.5;entryY=1;entryDx=0;entryDy=0;" edge="1" parent="1" source="Ex0EIse3YdcYi0-qsqE2-73" target="MIWhuhaw3we_5TaFjL_g-10">
          <mxGeometry relative="1" as="geometry" />
        </mxCell>
        <mxCell id="Ex0EIse3YdcYi0-qsqE2-73" value="requests_permission" style="shape=rhombus;perimeter=rhombusPerimeter;whiteSpace=wrap;html=1;align=center;" parent="1" vertex="1">
          <mxGeometry x="930" y="-300" width="140" height="80" as="geometry" />
        </mxCell>
        <mxCell id="Ex0EIse3YdcYi0-qsqE2-77" value="" style="edgeStyle=entityRelationEdgeStyle;fontSize=12;html=1;endArrow=none;endFill=1;startArrow=ERzeroToMany;rounded=0;entryX=0.25;entryY=0;entryDx=0;entryDy=0;exitX=0.144;exitY=-0.047;exitDx=0;exitDy=0;exitPerimeter=0;" parent="1" source="gGllVryrbf8ipJSGgLWO-50" target="Ex0EIse3YdcYi0-qsqE2-73" edge="1">
          <mxGeometry width="100" height="100" relative="1" as="geometry">
            <mxPoint x="84.40000000000009" y="138.1199999999999" as="sourcePoint" />
            <mxPoint x="985" y="210" as="targetPoint" />
          </mxGeometry>
        </mxCell>
        <mxCell id="Ex0EIse3YdcYi0-qsqE2-81" value="" style="edgeStyle=entityRelationEdgeStyle;fontSize=12;html=1;endArrow=ERzeroToMany;startArrow=none;rounded=0;exitX=1;exitY=0.5;exitDx=0;exitDy=0;entryX=0.75;entryY=1;entryDx=0;entryDy=0;" parent="1" source="Ex0EIse3YdcYi0-qsqE2-79" target="gGllVryrbf8ipJSGgLWO-81" edge="1">
          <mxGeometry width="100" height="100" relative="1" as="geometry">
            <mxPoint x="195" y="930" as="sourcePoint" />
            <mxPoint x="410" y="880" as="targetPoint" />
          </mxGeometry>
        </mxCell>
        <mxCell id="Ex0EIse3YdcYi0-qsqE2-84" value="" style="edgeStyle=orthogonalEdgeStyle;rounded=0;orthogonalLoop=1;jettySize=auto;html=1;" parent="1" source="Ex0EIse3YdcYi0-qsqE2-79" target="Ex0EIse3YdcYi0-qsqE2-83" edge="1">
          <mxGeometry relative="1" as="geometry" />
        </mxCell>
        <mxCell id="Ex0EIse3YdcYi0-qsqE2-79" value="Block" style="shape=rhombus;perimeter=rhombusPerimeter;whiteSpace=wrap;html=1;align=center;" parent="1" vertex="1">
          <mxGeometry x="175" y="730" width="105" height="50" as="geometry" />
        </mxCell>
        <mxCell id="Ex0EIse3YdcYi0-qsqE2-82" value="" style="edgeStyle=entityRelationEdgeStyle;fontSize=12;html=1;endArrow=none;startArrow=ERmandOne;rounded=0;exitX=0.25;exitY=1;exitDx=0;exitDy=0;entryX=0;entryY=0.5;entryDx=0;entryDy=0;" parent="1" source="gGllVryrbf8ipJSGgLWO-76" target="Ex0EIse3YdcYi0-qsqE2-79" edge="1">
          <mxGeometry width="100" height="100" relative="1" as="geometry">
            <mxPoint x="120" y="630" as="sourcePoint" />
            <mxPoint x="375" y="700" as="targetPoint" />
          </mxGeometry>
        </mxCell>
        <mxCell id="Ex0EIse3YdcYi0-qsqE2-83" value="duration" style="ellipse;whiteSpace=wrap;html=1;align=center;" parent="1" vertex="1">
          <mxGeometry x="200.5" y="810" width="54" height="40" as="geometry" />
        </mxCell>
        <mxCell id="MIWhuhaw3we_5TaFjL_g-9" value="&lt;div&gt;ending_time&lt;/div&gt;" style="ellipse;whiteSpace=wrap;html=1;align=center;" parent="1" vertex="1">
          <mxGeometry x="1140" y="-460" width="100" height="40" as="geometry" />
        </mxCell>
        <mxCell id="MIWhuhaw3we_5TaFjL_g-10" value="starting_time" style="ellipse;whiteSpace=wrap;html=1;align=center;" parent="1" vertex="1">
          <mxGeometry x="827" y="-450" width="100" height="40" as="geometry" />
        </mxCell>
      </root>
    </mxGraphModel>
  </diagram>
</mxfile>
